<svg xmlns="http://www.w3.org/2000/svg" viewBox="0 0 260 220">
  <defs>
    <linearGradient id="skin" x1="40" y1="8" x2="220" y2="205" gradientUnits="userSpaceOnUse">
      <stop offset="0" stop-color="#f6d0a8"/>
      <stop offset="1" stop-color="#e6a97c"/>
    </linearGradient>
  </defs>
  <path d="M108 4h44v36c-6 8-13 12-22 12s-16-4-22-12z" fill="url(#skin)"/>
  <path d="M77 48C51 70 39 111 35 170" fill="none" stroke="#8f2f36" stroke-width="38" stroke-linecap="round"/>
  <path d="M183 48c26 22 38 63 42 122" fill="none" stroke="#8f2f36" stroke-width="38" stroke-linecap="round"/>
  <ellipse cx="35" cy="178" rx="22" ry="25" fill="url(#skin)"/>
  <ellipse cx="225" cy="178" rx="22" ry="25" fill="url(#skin)"/>
  <path d="M76 26h108c17 25 27 60 30 112l4 66H42l4-66c3-52 13-87 30-112z" fill="#8f2f36" stroke="#6d2027" stroke-width="5" stroke-linejoin="round"/>
  <path d="M83 28l47 70 47-70" fill="none" stroke="#c56d71" stroke-width="9" stroke-linecap="round"/>
  <path d="M66 76c20-17 41-25 64-25s44 8 64 25" fill="none" stroke="#a94047" stroke-width="17" stroke-linecap="round"/>
  <path d="M58 184h144" stroke="#6d2027" stroke-width="9" stroke-linecap="round"/>
</svg>
